<?xml version="1.0" standalone="no"?>
<svg xmlns:xlink="http://www.w3.org/1999/xlink" id="wave" style="transform:rotate(0deg); transition: 0.3s" viewBox="0 0 1440 270" version="1.1" xmlns="http://www.w3.org/2000/svg"><defs><linearGradient id="sw-gradient-0" x1="0" x2="0" y1="1" y2="0"><stop stop-color="rgba(233, 162, 9, 1)" offset="0%"/><stop stop-color="rgba(233, 162, 9, 1)" offset="100%"/></linearGradient></defs><path style="transform:translate(0, 0px); opacity:1" fill="url(#sw-gradient-0)" d="M0,81L40,85.5C80,90,160,99,240,103.5C320,108,400,108,480,90C560,72,640,36,720,27C800,18,880,36,960,67.5C1040,99,1120,144,1200,171C1280,198,1360,207,1440,180C1520,153,1600,90,1680,85.5C1760,81,1840,135,1920,148.5C2000,162,2080,135,2160,121.5C2240,108,2320,108,2400,99C2480,90,2560,72,2640,67.5C2720,63,2800,72,2880,67.5C2960,63,3040,45,3120,63C3200,81,3280,135,3360,162C3440,189,3520,189,3600,193.5C3680,198,3760,207,3840,198C3920,189,4000,162,4080,135C4160,108,4240,81,4320,67.5C4400,54,4480,54,4560,63C4640,72,4720,90,4800,94.5C4880,99,4960,90,5040,94.5C5120,99,5200,117,5280,117C5360,117,5440,99,5520,81C5600,63,5680,45,5720,36L5760,27L5760,270L5720,270C5680,270,5600,270,5520,270C5440,270,5360,270,5280,270C5200,270,5120,270,5040,270C4960,270,4880,270,4800,270C4720,270,4640,270,4560,270C4480,270,4400,270,4320,270C4240,270,4160,270,4080,270C4000,270,3920,270,3840,270C3760,270,3680,270,3600,270C3520,270,3440,270,3360,270C3280,270,3200,270,3120,270C3040,270,2960,270,2880,270C2800,270,2720,270,2640,270C2560,270,2480,270,2400,270C2320,270,2240,270,2160,270C2080,270,2000,270,1920,270C1840,270,1760,270,1680,270C1600,270,1520,270,1440,270C1360,270,1280,270,1200,270C1120,270,1040,270,960,270C880,270,800,270,720,270C640,270,560,270,480,270C400,270,320,270,240,270C160,270,80,270,40,270L0,270Z"/></svg>